<svg width="52" height="53" viewBox="0 0 52 53" fill="none" xmlns="http://www.w3.org/2000/svg">
<g clip-path="url(#clip0_36_276)">
<path opacity="0.2" d="M40.625 10.6724H11.375C10.4775 10.6724 9.75 11.3999 9.75 12.2974V41.5474C9.75 42.4448 10.4775 43.1724 11.375 43.1724H40.625C41.5225 43.1724 42.25 42.4448 42.25 41.5474V12.2974C42.25 11.3999 41.5225 10.6724 40.625 10.6724Z" fill="#37517E"/>
<path d="M13 7.42236L6.5 13.9224L13 20.4224" stroke="#37517E" stroke-width="2" stroke-linecap="round" stroke-linejoin="round"/>
<path d="M21.125 7.42236L27.625 13.9224L21.125 20.4224" stroke="#37517E" stroke-width="2" stroke-linecap="round" stroke-linejoin="round"/>
<path d="M35.75 10.6724H40.625C41.056 10.6724 41.4693 10.8436 41.774 11.1483C42.0788 11.4531 42.25 11.8664 42.25 12.2974V41.5474C42.25 41.9783 42.0788 42.3917 41.774 42.6964C41.4693 43.0012 41.056 43.1724 40.625 43.1724H11.375C10.944 43.1724 10.5307 43.0012 10.226 42.6964C9.92121 42.3917 9.75 41.9783 9.75 41.5474V28.5474" stroke="#37517E" stroke-width="2" stroke-linecap="round" stroke-linejoin="round"/>
</g>
<defs>
<clipPath id="clip0_36_276">
<rect width="52" height="52" fill="white" transform="translate(0 0.922363)"/>
</clipPath>
</defs>
</svg>
