<svg width="52" height="53" viewBox="0 0 52 53" fill="none" xmlns="http://www.w3.org/2000/svg">
<g clip-path="url(#clip0_36_283)">
<path opacity="0.2" d="M20.2556 27.0666C20.0496 26.9363 19.8755 26.7613 19.7463 26.5547C19.617 26.348 19.5359 26.1148 19.509 25.8726C19.4821 25.6303 19.51 25.385 19.5907 25.155C19.6715 24.925 19.8029 24.7161 19.9753 24.5438L29.25 15.5474H37.375L26 12.2974L14.625 15.5474L8.125 28.5474L19.5 36.6724L32.5 39.9224L40.625 31.7974L32.5 25.2974C28.6406 29.1831 23.8123 29.3396 20.2556 27.0666Z" fill="#37517E"/>
<path d="M37.375 15.5474H29.25L19.9753 24.5438C19.8029 24.7161 19.6715 24.925 19.5908 25.155C19.51 25.385 19.4821 25.6303 19.509 25.8726C19.5359 26.1148 19.617 26.348 19.7463 26.5547C19.8755 26.7613 20.0496 26.9363 20.2556 27.0666C23.8124 29.3396 28.6406 29.1831 32.5 25.2974L40.625 31.7974L43.875 28.5474" stroke="#37517E" stroke-width="2" stroke-linecap="round" stroke-linejoin="round"/>
<path d="M40.625 31.7974L32.5 39.9224L19.5 36.6724L8.125 28.5474" stroke="#37517E" stroke-width="2" stroke-linecap="round" stroke-linejoin="round"/>
<path d="M11.375 39.9224L16.25 43.1724L22.75 44.7974" stroke="#37517E" stroke-width="2" stroke-linecap="round" stroke-linejoin="round"/>
<path d="M14.625 15.5474L26 12.2974L37.375 15.5474" stroke="#37517E" stroke-width="2" stroke-linecap="round" stroke-linejoin="round"/>
<path d="M7.39782 13.7517L2.3522 23.843C2.25656 24.034 2.19951 24.2419 2.1843 24.4549C2.16909 24.668 2.19603 24.8819 2.26357 25.0845C2.3311 25.2871 2.43792 25.4744 2.5779 25.6357C2.71789 25.797 2.8883 25.9292 3.07939 26.0246L8.12501 28.5474L14.625 15.5474L9.57938 13.0246C9.38842 12.9289 9.18048 12.8719 8.96745 12.8567C8.75441 12.8415 8.54047 12.8684 8.33786 12.9359C8.13525 13.0035 7.94794 13.1103 7.78664 13.2503C7.62534 13.3903 7.49321 13.5607 7.39782 13.7517Z" stroke="#37517E" stroke-width="2" stroke-linecap="round" stroke-linejoin="round"/>
<path d="M42.4206 13.0246L37.375 15.5474L43.875 28.5474L48.9206 26.0246C49.1117 25.9292 49.2821 25.797 49.4221 25.6357C49.5621 25.4744 49.6689 25.2871 49.7364 25.0845C49.804 24.8819 49.8309 24.668 49.8157 24.4549C49.8005 24.2419 49.7434 24.034 49.6478 23.843L44.6022 13.7517C44.5068 13.5607 44.3747 13.3903 44.2134 13.2503C44.0521 13.1103 43.8648 13.0035 43.6621 12.9359C43.4595 12.8684 43.2456 12.8415 43.0326 12.8567C42.8195 12.8719 42.6116 12.9289 42.4206 13.0246Z" stroke="#37517E" stroke-width="2" stroke-linecap="round" stroke-linejoin="round"/>
</g>
<defs>
<clipPath id="clip0_36_283">
<rect width="52" height="52" fill="white" transform="translate(0 0.922363)"/>
</clipPath>
</defs>
</svg>
