<svg width="20" height="20" viewBox="0 0 20 20" fill="none" xmlns="http://www.w3.org/2000/svg">
<g clip-path="url(#clip0_83_75)">
<path opacity="0.2" d="M10 1.875C8.3424 1.875 6.75269 2.53348 5.58058 3.70558C4.40848 4.87769 3.75 6.4674 3.75 8.125C3.75 13.75 10 18.125 10 18.125C10 18.125 16.25 13.75 16.25 8.125C16.25 6.4674 15.5915 4.87769 14.4194 3.70558C13.2473 2.53348 11.6576 1.875 10 1.875ZM10 10.625C9.50555 10.625 9.0222 10.4784 8.61107 10.2037C8.19995 9.92897 7.87952 9.53852 7.6903 9.08171C7.50108 8.62489 7.45157 8.12223 7.54804 7.63727C7.6445 7.15232 7.8826 6.70686 8.23223 6.35723C8.58186 6.0076 9.02732 5.7695 9.51227 5.67304C9.99723 5.57657 10.4999 5.62608 10.9567 5.8153C11.4135 6.00452 11.804 6.32495 12.0787 6.73607C12.3534 7.1472 12.5 7.63055 12.5 8.125C12.5 8.78804 12.2366 9.42393 11.7678 9.89277C11.2989 10.3616 10.663 10.625 10 10.625Z" fill="#47B2E4"/>
<path d="M4.375 18.125H15.625" stroke="#47B2E4" stroke-linecap="round" stroke-linejoin="round"/>
<path d="M10 10.625C11.3807 10.625 12.5 9.50571 12.5 8.125C12.5 6.74429 11.3807 5.625 10 5.625C8.61929 5.625 7.5 6.74429 7.5 8.125C7.5 9.50571 8.61929 10.625 10 10.625Z" stroke="#47B2E4" stroke-linecap="round" stroke-linejoin="round"/>
<path d="M16.25 8.125C16.25 13.75 10 18.125 10 18.125C10 18.125 3.75 13.75 3.75 8.125C3.75 6.4674 4.40848 4.87769 5.58058 3.70558C6.75269 2.53348 8.3424 1.875 10 1.875C11.6576 1.875 13.2473 2.53348 14.4194 3.70558C15.5915 4.87769 16.25 6.4674 16.25 8.125Z" stroke="#47B2E4" stroke-linecap="round" stroke-linejoin="round"/>
</g>
<defs>
<clipPath id="clip0_83_75">
<rect width="20" height="20" fill="white"/>
</clipPath>
</defs>
</svg>
