<svg width="52" height="53" viewBox="0 0 52 53" fill="none" xmlns="http://www.w3.org/2000/svg">
<g clip-path="url(#clip0_36_292)">
<path opacity="0.2" d="M30.875 33.4224H39C41.1549 33.4224 43.2215 32.5663 44.7452 31.0426C46.269 29.5189 47.125 27.4522 47.125 25.2974C47.125 23.1425 46.269 21.0759 44.7452 19.5521C43.2215 18.0284 41.1549 17.1724 39 17.1724H30.875V33.4224Z" fill="#37517E"/>
<path d="M30.875 17.1724V41.6835C30.8752 41.9507 30.9412 42.2138 31.0674 42.4494C31.1935 42.685 31.3758 42.8859 31.5981 43.0342L33.8325 44.5231C34.0492 44.6676 34.2975 44.7579 34.5564 44.7864C34.8154 44.8148 35.0773 44.7806 35.3203 44.6866C35.5632 44.5926 35.78 44.4416 35.9523 44.2463C36.1247 44.051 36.2476 43.8171 36.3106 43.5644L39 33.4224" stroke="#37517E" stroke-width="2" stroke-linecap="round" stroke-linejoin="round"/>
<path d="M6.5 41.5474C6.50007 41.8569 6.58851 42.1599 6.75492 42.4208C6.92132 42.6817 7.15877 42.8897 7.43934 43.0203C7.71992 43.1509 8.03194 43.1986 8.33872 43.1579C8.6455 43.1172 8.93428 42.9897 9.17109 42.7905C19.8148 33.8611 30.875 33.4224 30.875 33.4224H39C41.1549 33.4224 43.2215 32.5664 44.7452 31.0426C46.269 29.5189 47.125 27.4523 47.125 25.2974C47.125 23.1425 46.269 21.0759 44.7452 19.5521C43.2215 18.0284 41.1549 17.1724 39 17.1724H30.875C30.875 17.1724 19.8148 16.7336 9.17109 7.8063C8.93441 7.60719 8.64582 7.47976 8.33922 7.43899C8.03263 7.39821 7.72076 7.44579 7.44026 7.57612C7.15977 7.70644 6.92229 7.91412 6.75574 8.17474C6.58918 8.43536 6.50046 8.7381 6.5 9.04739V41.5474Z" stroke="#37517E" stroke-width="2" stroke-linecap="round" stroke-linejoin="round"/>
</g>
<defs>
<clipPath id="clip0_36_292">
<rect width="52" height="52" fill="white" transform="translate(0 0.922363)"/>
</clipPath>
</defs>
</svg>
