<svg width="22" height="22" viewBox="0 0 22 22" fill="none" xmlns="http://www.w3.org/2000/svg">
<g clip-path="url(#clip0_94_73)">
<path d="M14.1273 12.4903C14.2225 12.4269 14.332 12.3883 14.4459 12.378C14.5598 12.3676 14.6745 12.3858 14.7795 12.431L18.8323 14.2469C18.9689 14.3052 19.0829 14.4063 19.1573 14.5348C19.2316 14.6634 19.2624 14.8126 19.2448 14.9601C19.1113 15.9579 18.62 16.8732 17.8622 17.5359C17.1044 18.1985 16.1317 18.5634 15.125 18.5626C12.0253 18.5626 9.05252 17.3313 6.86069 15.1394C4.66886 12.9476 3.4375 9.97485 3.4375 6.87513C3.43673 5.86847 3.8016 4.89578 4.46425 4.13797C5.1269 3.38016 6.04223 2.8888 7.04 2.75529C7.1875 2.73777 7.3367 2.76848 7.46528 2.84284C7.59387 2.9172 7.69491 3.03121 7.75328 3.16779L9.56914 7.22404C9.61376 7.32822 9.63193 7.44182 9.62203 7.55472C9.61213 7.66762 9.57448 7.77632 9.51242 7.87115L7.67594 10.0548C7.61079 10.1531 7.57227 10.2666 7.56414 10.3843C7.556 10.5019 7.57854 10.6197 7.62953 10.726C8.34024 12.1809 9.84414 13.6668 11.3034 14.3706C11.4103 14.4214 11.5285 14.4434 11.6465 14.4345C11.7645 14.4256 11.8782 14.3861 11.9763 14.3199L14.1273 12.4903Z" stroke="#1F506A" stroke-width="2" stroke-linecap="round" stroke-linejoin="round"/>
</g>
<defs>
<clipPath id="clip0_94_73">
<rect width="22" height="22" fill="white"/>
</clipPath>
</defs>
</svg>
