<svg width="24" height="25" viewBox="0 0 18 18" fill="none" xmlns="http://www.w3.org/2000/svg">
<path opacity="0.2" d="M15.7282 2.96578C15.7553 2.86956 15.7563 2.76785 15.7311 2.67113C15.7058 2.5744 15.6552 2.48615 15.5845 2.41546C15.5139 2.34477 15.4256 2.2942 15.3289 2.26895C15.2322 2.2437 15.1304 2.24468 15.0342 2.2718L1.53423 6.36539C1.42401 6.39649 1.32592 6.4605 1.25305 6.54885C1.18019 6.6372 1.13603 6.74569 1.12647 6.85981C1.11692 6.97393 1.14243 7.08825 1.19958 7.18749C1.25674 7.28673 1.34283 7.36616 1.44634 7.41515L7.4665 10.2656C7.5837 10.3212 7.67809 10.4156 7.73368 10.5328L10.5849 16.5523C10.6339 16.6558 10.7133 16.7419 10.8125 16.799C10.9118 16.8562 11.0261 16.8817 11.1402 16.8721C11.2543 16.8626 11.3628 16.8184 11.4512 16.7455C11.5395 16.6727 11.6035 16.5746 11.6346 16.4644L15.7282 2.96578Z" fill="#47B2E4"/>
<path d="M15.7282 2.96578C15.7553 2.86956 15.7563 2.76785 15.7311 2.67113C15.7058 2.5744 15.6552 2.48615 15.5845 2.41546C15.5139 2.34477 15.4256 2.2942 15.3289 2.26895C15.2322 2.2437 15.1304 2.24468 15.0342 2.2718L1.53423 6.36539C1.42401 6.39649 1.32592 6.4605 1.25305 6.54885C1.18019 6.6372 1.13603 6.74569 1.12647 6.85981C1.11692 6.97393 1.14243 7.08825 1.19958 7.18749C1.25674 7.28673 1.34283 7.36616 1.44634 7.41515L7.4665 10.2656C7.5837 10.3212 7.67809 10.4156 7.73368 10.5328L10.5849 16.5523C10.6339 16.6558 10.7133 16.7419 10.8125 16.799C10.9118 16.8562 11.0261 16.8817 11.1402 16.8721C11.2543 16.8626 11.3628 16.8184 11.4512 16.7455C11.5395 16.6727 11.6035 16.5746 11.6346 16.4644L15.7282 2.96578Z" stroke="#47B2E4" stroke-linecap="round" stroke-linejoin="round"/>
<path d="M7.62329 10.3767L11.25 6.75" stroke="#47B2E4" stroke-linecap="round" stroke-linejoin="round"/>
</svg>
